# xmcd
#
# Track frame offsets: 
#        150
#        23996
#        49220
#        73977
#        100210
#        127874
#        148113
#        168674
#        192960
#        220224
#        243180
#        263760
#
# Disc length: 3779 seconds
#
# Revision: 1
# Processed by: cddbd v1.5.2PL0 Copyright (c) Steve Scherf et al.
# Submitted via: ExactAudioCopy v0.99pb5
#
DISCID=b30ec10c
DTITLE=Latin Vibe - All That Vibe
DYEAR=2005
DGENRE=Salsa
TTITLE0=Pa' los bravos
TTITLE1=Si tu bailas...
TTITLE2=Rico cha cha cha
TTITLE3=Ritmo pa' boriquen
TTITLE4=La llave
TTITLE5=No te vayas ramon
TTITLE6=Llego el rumbero
TTITLE7=Can't get enough
TTITLE8=Conquistar tu corazon
TTITLE9=Aprieta el corazon
TTITLE10=La fiesta ya comenso
TTITLE11=All that  vibe
EXTD=YEAR: 2005
EXTT0=
EXTT1=
EXTT2=
EXTT3=
EXTT4=
EXTT5=
EXTT6=
EXTT7=
EXTT8=
EXTT9=
EXTT10=
EXTT11=
PLAYORDER=
